<svg height="512" viewBox="0 0 64 64" width="512" xmlns="http://www.w3.org/2000/svg"><g id="Browser-Engineer-Software-Coding-Programing"><path d="m59 5v6h-56v-6a2.006 2.006 0 0 1 2-2h52a2.006 2.006 0 0 1 2 2z" fill="#bddbff"/><path d="m57.41 33.59a1.955 1.955 0 0 1 .59 1.41 2.006 2.006 0 0 1 -2 2h-14a2.015 2.015 0 0 1 -2-2 2.006 2.006 0 0 1 2-2h14a1.955 1.955 0 0 1 1.41.59z" fill="#bddbff"/><path d="m56 33h-5v-5.91a5.832 5.832 0 0 1 3.24 1.67 5.944 5.944 0 0 1 1.76 4.24z" fill="#bddbff"/><path d="m54.7 52.2-.7 2.8-3-1-1-2 2-1z" fill="#bddbff"/><path d="m58.64 54.14a5.384 5.384 0 0 0 -1.2-.72l-2.74-1.22-.7 2.8-3-1-.82.82.05.18 1.77 6h9v-2.1a5.982 5.982 0 0 0 -2.36-4.76z" fill="#bddbff"/><path d="m51 27.09v5.91h-4v-7a1 1 0 0 1 1-1h2a1 1 0 0 1 1 1z" fill="#bddbff"/><path d="m50 52h-2l-1 2 .82.82.18.18 1 1 1-1 .18-.18.82-.82z" fill="#bddbff"/><path d="m48 52-1 2-3 1-.7-2.8 2.7-1.2z" fill="#bddbff"/><path d="m50.23 55-.05-.18-.18.18-1 1-1-1-.18-.18-.05.18-1.77 6h6z" fill="#bddbff"/><path d="m47 27.09v5.91h-5a5.99 5.99 0 0 1 5-5.91z" fill="#bddbff"/><path d="m47 54-3 1-.7-2.8-2.74 1.22a6.08 6.08 0 0 0 -2.12 1.58 6.012 6.012 0 0 0 -1.44 3.9v2.1h9l1.77-6 .05-.18z" fill="#bddbff"/><path d="m29 50v-4l-3.32-.47a9.8 9.8 0 0 0 -1.09-2.62l2.02-2.69-2.83-2.83-2.69 2.02a9.8 9.8 0 0 0 -2.62-1.09l-.47-3.32h-4l-.47 3.32a9.8 9.8 0 0 0 -2.62 1.09l-2.69-2.02-2.83 2.83 2.02 2.69a9.8 9.8 0 0 0 -1.09 2.62l-3.32.47v4l3.32.47a9.8 9.8 0 0 0 1.09 2.62l-1.43 1.91-.59.78 2.83 2.83 2.69-2.02a9.8 9.8 0 0 0 2.62 1.09l.47 3.32h4l.47-3.32a9.8 9.8 0 0 0 2.62-1.09l2.69 2.02 2.83-2.83-.59-.78-1.43-1.91a9.8 9.8 0 0 0 1.09-2.62zm-13-7a5 5 0 1 1 -5 5 5 5 0 0 1 5-5z" fill="#bddbff"/><g fill="#3d9ae2"><path d="m8 6h2v2h-2z"/><path d="m12 6h2v2h-2z"/><path d="m16 6h2v2h-2z"/><path d="m4 12h54v18h2v-25a3 3 0 0 0 -3-3h-52a3 3 0 0 0 -3 3v38h2zm1-8h52a1 1 0 0 1 1 1v5h-54v-5a1 1 0 0 1 1-1z"/><path d="m29 54h6v2h-6z"/><path d="m24 6h26v2h-26z"/><path d="m18.293 16.293-3 3a1 1 0 0 0 0 1.414l3 3 1.414-1.414-2.293-2.293 2.293-2.293z"/><path d="m19.228 19h8.544v2h-8.544z" transform="matrix(.351 -.936 .936 .351 -3.478 34.981)"/><path d="m28.707 23.707 3-3a1 1 0 0 0 0-1.414l-3-3-1.414 1.414 2.293 2.293-2.293 2.293z"/><path d="m18 26h4v2h-4z"/><path d="m24 26h8v2h-8z"/><path d="m20 30h4v2h-4z"/><path d="m26 30h8v2h-8z"/><path d="m25.781 53.012a10.86 10.86 0 0 0 .679-1.639l2.682-.383a1 1 0 0 0 .858-.99v-4a1 1 0 0 0 -.858-.99l-2.682-.383a10.86 10.86 0 0 0 -.679-1.639l1.625-2.166a1 1 0 0 0 -.093-1.307l-2.828-2.828a1 1 0 0 0 -1.306-.093l-2.167 1.624a10.855 10.855 0 0 0 -1.639-.678l-.383-2.682a1 1 0 0 0 -.99-.858h-4a1 1 0 0 0 -.99.858l-.383 2.682a10.855 10.855 0 0 0 -1.639.678l-2.167-1.624a1 1 0 0 0 -1.306.093l-2.828 2.828a1 1 0 0 0 -.093 1.307l1.625 2.166a10.86 10.86 0 0 0 -.679 1.639l-2.682.383a1 1 0 0 0 -.858.99v4a1 1 0 0 0 .858.99l2.682.383a10.86 10.86 0 0 0 .679 1.639l-1.625 2.166a1 1 0 0 0 .093 1.307l2.828 2.828a1 1 0 0 0 1.306.093l2.167-1.624a10.855 10.855 0 0 0 1.639.678l.383 2.682a1 1 0 0 0 .99.858h4a1 1 0 0 0 .99-.858l.383-2.682a10.855 10.855 0 0 0 1.639-.678l2.167 1.624a1 1 0 0 0 1.306-.093l2.828-2.828a1 1 0 0 0 .093-1.307zm-1.987.683 1.492 1.99-1.6 1.6-1.991-1.492a1 1 0 0 0 -1.11-.06 8.859 8.859 0 0 1 -2.356.975 1 1 0 0 0 -.744.828l-.352 2.464h-2.266l-.351-2.463a1 1 0 0 0 -.744-.828 8.859 8.859 0 0 1 -2.356-.975 1 1 0 0 0 -1.11.06l-1.991 1.492-1.6-1.6 1.491-1.986a1 1 0 0 0 .061-1.111 8.923 8.923 0 0 1 -.977-2.357 1 1 0 0 0 -.827-.742l-2.463-.357v-2.266l2.463-.352a1 1 0 0 0 .827-.742 8.923 8.923 0 0 1 .977-2.357 1 1 0 0 0 -.061-1.111l-1.492-1.99 1.6-1.6 1.991 1.492a1 1 0 0 0 1.11.06 8.859 8.859 0 0 1 2.356-.975 1 1 0 0 0 .744-.828l.352-2.464h2.266l.351 2.463a1 1 0 0 0 .744.828 8.859 8.859 0 0 1 2.356.975 1 1 0 0 0 1.11-.06l1.991-1.492 1.6 1.6-1.492 1.99a1 1 0 0 0 -.061 1.111 8.923 8.923 0 0 1 .977 2.357 1 1 0 0 0 .827.742l2.464.353v2.266l-2.463.352a1 1 0 0 0 -.827.742 8.923 8.923 0 0 1 -.977 2.357 1 1 0 0 0 .061 1.116z"/><path d="m16 42a6 6 0 1 0 6 6 6.006 6.006 0 0 0 -6-6zm0 10a4 4 0 1 1 4-4 4 4 0 0 1 -4 4z"/><path d="m45 40h2v2h-2z"/><path d="m51 40h2v2h-2z"/><path d="m57.85 52.51-4.85-2.16v-1.43a8.06 8.06 0 0 0 3.74-4.92h.26a3 3 0 0 0 0-6v-.18a2.983 2.983 0 0 0 -.05-5.65 6.934 6.934 0 0 0 -2-4.11 6.756 6.756 0 0 0 -2.95-1.75v-.31a2.006 2.006 0 0 0 -2-2h-2a2.006 2.006 0 0 0 -2 2v.3a6.96 6.96 0 0 0 -4.95 5.87 2.983 2.983 0 0 0 -.05 5.65v.18a3 3 0 0 0 0 6h.26a8.06 8.06 0 0 0 3.74 4.92v1.43l-4.85 2.16a7 7 0 0 0 -4.15 6.39v2.1a1 1 0 0 0 1 1h24a1 1 0 0 0 1-1v-2.1a7 7 0 0 0 -4.15-6.39zm-16.85-10.51a1 1 0 0 1 0-2zm12.53 10.77-.24.94-1.58-.53-.37-.73.69-.34zm4.47-11.77a1 1 0 0 1 -1 1v-2a1 1 0 0 1 1 1zm-6-12.57a5.106 5.106 0 0 1 1.54 1.04 4.913 4.913 0 0 1 1.36 2.53h-2.9zm-4-2.43h2v6h-2zm-2 2.43v3.57h-2.9a4.961 4.961 0 0 1 2.9-3.57zm-5 6.57a1 1 0 0 1 1-1h14a1 1 0 0 1 0 2h-14a1 1 0 0 1 -1-1zm2 7v-4h12v4a6 6 0 0 1 -12 0zm2.97 10.11.69.34-.37.73-1.58.53-.24-.94zm-.72 7.89h-7.25v-1.1a5 5 0 0 1 2.97-4.57l1.65-.73.41 1.64a1.017 1.017 0 0 0 .49.64 1 1 0 0 0 .48.12 1.185 1.185 0 0 0 .32-.05l2.36-.79zm2.09 0 .96-3.29a.99.99 0 0 0 1.4 0l.96 3.29zm.88-6.2.4-.8h.76l.4.8-.78.79zm2.78-3.42-1.24.62h-1.52l-1.24-.62v-.64a7.822 7.822 0 0 0 4 0zm9 9.62h-7.25l-1.43-4.84 2.36.79a1.185 1.185 0 0 0 .32.05 1 1 0 0 0 .48-.12 1.017 1.017 0 0 0 .49-.64l.41-1.64 1.65.73a5 5 0 0 1 2.97 4.57z"/></g></g></svg>